<?xml version="1.0" encoding="utf-8"?>
<!-- Generator: Adobe Illustrator 22.1.0, SVG Export Plug-In . SVG Version: 6.00 Build 0)  -->
<svg version="1.1" xmlns="http://www.w3.org/2000/svg" xmlns:xlink="http://www.w3.org/1999/xlink" x="0px" y="0px"
	 viewBox="0 0 2047.2 1921.2" style="enable-background:new 0 0 2047.2 1921.2;" xml:space="preserve">
<style type="text/css">
	.st0{fill:#6D6E71;} <!-- -->
	.st1{fill:#B4D784;} <!-- -->
	.st2{fill:#ada793;} <!-- Bombsites -->
	.st3{fill:none;stroke:#FFFFFF;stroke-width:3;stroke-miterlimit:10;}
	.st4{fill:none;stroke:#FFFFFF;stroke-width:2;stroke-miterlimit:10;}

	.polygon {
	  fill: rgba(255,255,255,0);
	  stroke: #EC5964;
	  stroke-width: 8px;
		cursor: pointer;
		transition: 0.2s ease-out;
	}

	.polygon:hover {
		fill: #EC5964;
	}

</style>
<g id="Outer_walls">
	<g id="XMLID_1_">
		<g>
			<path class="st0" d="M1783.8,1248.6v133.3h-496.3v220.6H987.6v-25.3h-11.5v11.5H744v-218.3h-11.5v383.7h-60.4v-325.7h-7.7v65.9
				H456.2v-65.9h-4.6v72H389v-132.4h-13.8v25.3H255.7v-384.9h-71.3V740.7h69v-16.1h-25.3v-90.8h23V414.4h183.8V100.8h86.5v31.4
				v163.9h-12.3v193h6.1v33.7h9.2V505h44.9l45.5-33.2h101.1v44.4h15.3v-70h30.1v-17.9h-44.4v-28.6h-13.3V132.2v-31.4h163.2v112.6
				h72.4V36.4h89.6v94.2h-26.4v46h26.4v293h18.4v-48.3H1446v186.1h88.5v-28.7h154v173.5h41.4v284.9h54V1248.6z M1534.1,921.1V682.9
				h-115.7V920h-228.6l-26.4,26.4v167.7h-72v6.1h56.7v114.1h-56.7v55.1h399.8V1082h-14.6V921.1H1534.1z M1313,783.8V575.4h-268.6
				v-47.5h-14.8v19.4H896.8v-77.1h42.4V286.9h-71v141.4h-45.4v16.9h31.1v175.7h26.5v-28.1h121v120h-46v71H1313z M1043.9,1120.3v-6.9
				h-298v-72H609.6v3.8h29.9l48.6,48.6v111.4H587.4v10h80.4v48.3h65.1v40.6h13.8v-55.9h149.4v160.1h-44.4v90.4H978v16.8h10v-151.7
				h39.8v-84.3h-42.9v-159.3H1043.9z M880,872.9V666.8h-27.6v32.9H730.6V564.3h-14.5v45.1H600.4V725H331.5v16.8H376v86.5h4.6
				l0.8-29.9h87.1v122l25.5,25.5h31l28.7-28.7v-59h107.2v75.8h85.8v-61.3H880z M538.3,1217.6v-12.3l-29.9-0.8V1046h29.9v-4.6H520
				v-32.9H381.3V891.3h-4.6v281.1h-45.2v59.7H376v72.8h14.5v-14.6H474v-72.8H538.3z M523.8,635.4v-78.1h-6.9v35.2h-82V488.4H331.5
				v147.1H523.8z"/>
			<polygon class="st1" points="2011.3,1164.7 2011.3,1248.6 1783.8,1248.6 1783.8,1037.2 1942.3,1037.2 1942.3,1117.6
				1956.1,1117.6 			"/>
			<rect x="35.1" y="740.7" class="st1" width="149.3" height="267.7"/>
			<path class="st2" d="M703.8,132.2v267.6H522l-0.5-103.7V132.2h32.7v-31.4h118.5v31.4H703.8z M672.6,354.8v-30.1h-86.8v30.1H672.6
				z M635.4,206.7v-28.1h-27.1v28.1h-8.2v28.1h26.5v-28.1H635.4z"/>
			<rect x="672.6" y="100.8" class="st0" width="31.1" height="31.4"/>
			<rect x="585.8" y="324.7" class="st0" width="86.8" height="30.1"/>
			<polygon class="st0" points="638.5,1500.4 451.6,1500.4 451.6,1428.4 456.2,1428.4 456.2,1494.3 664.5,1494.3 664.5,1428.4
				672.2,1428.4 672.2,1754.1 664.5,1754.1 664.5,1527.8 664.5,1500.4 			"/>
			<path class="st2" d="M664.5,1527.8v226.3h-56.1v-1.2h-162H389v-149.4h28.9v-29.1H389v-74.1h62.6h186.9v27.3H664.5z M580.2,1639.8
				v-25.3h-27.6l-15.3,6.1l-12.3-0.8v26.8h24.5l6.9-6.1L580.2,1639.8z"/>
			<rect x="638.5" y="1500.4" class="st0" width="26" height="27.3"/>
			<polygon class="st0" points="636,1765.6 636,1885.1 418.9,1885.1 418.9,1766.7 446.4,1766.7 446.4,1753 608.4,1753 608.4,1754.1
				608.4,1765.6 			"/>
			<polygon class="st0" points="635.4,178.7 635.4,206.7 626.7,206.7 626.7,234.8 600.1,234.8 600.1,206.7 608.3,206.7 608.3,178.7
							"/>
			<polygon class="st0" points="580.2,1614.6 580.2,1639.8 556.5,1640.6 549.6,1646.7 525.1,1646.7 525.1,1619.9 537.3,1620.7
				552.7,1614.6 			"/>
			<rect x="521.5" y="100.8" class="st0" width="32.7" height="31.4"/>
			<rect x="389" y="1574.5" class="st0" width="28.9" height="29.1"/>
		</g>
		<g>
			<polyline class="st3" points="554.2,100.8 672.6,100.8 703.8,100.8 866.9,100.8 866.9,213.4 939.3,213.4 939.3,36.4 1028.9,36.4
				1028.9,130.7 1002.5,130.7 1002.5,176.6 1028.9,176.6 1028.9,469.6 1047.3,469.6 1047.3,421.3 1446,421.3 1446,607.5
				1534.5,607.5 1534.5,578.7 1688.4,578.7 1688.4,752.2 1729.8,752.2 1729.8,1037.2 1783.8,1037.2 1942.3,1037.2 1942.3,1117.6
				1956.1,1117.6 2011.3,1164.7 2011.3,1248.6 1783.8,1248.6 1783.8,1381.8 1287.5,1381.8 1287.5,1602.4 987.6,1602.4 987.6,1577.2
				976.1,1577.2 976.1,1588.7 744,1588.7 744,1370.4 732.5,1370.4 732.5,1754.1 672.2,1754.1 664.5,1754.1 608.4,1754.1
				608.4,1765.6 636,1765.6 636,1885.1 418.9,1885.1 418.9,1766.7 446.4,1766.7 446.4,1753 389,1753 389,1603.6 389,1574.5
				389,1500.4 389,1368.1 375.2,1368.1 375.2,1393.3 255.7,1393.3 255.7,1008.4 184.5,1008.4 35.1,1008.4 35.1,740.7 184.5,740.7
				253.4,740.7 253.4,724.7 228.1,724.7 228.1,633.9 251.1,633.9 251.1,414.4 434.9,414.4 434.9,100.8 521.5,100.8 			"/>
			<polygon class="st3" points="521.5,296.1 509.2,296.1 509.2,489.1 515.4,489.1 515.4,522.8 524.6,522.8 524.6,505 569.5,505
				614.9,471.8 716.1,471.8 716.1,516.2 731.4,516.2 731.4,446.2 761.5,446.2 761.5,428.4 717.1,428.4 717.1,399.8 703.8,399.8
				522,399.8 			"/>
			<polygon class="st3" points="822.8,428.4 868.2,428.4 868.2,286.9 939.2,286.9 939.2,470.2 896.8,470.2 896.8,547.3
				1029.6,547.3 1029.6,527.9 1044.4,527.9 1044.4,575.4 1313,575.4 1313,783.8 955.5,783.8 955.5,712.8 1001.5,712.8 1001.5,592.8
				880.5,592.8 880.5,620.9 853.9,620.9 853.9,445.2 822.8,445.2 			"/>
			<polygon class="st3" points="1534.1,682.9 1534.1,921.1 1476.6,921.1 1476.6,1082 1491.2,1082 1491.2,1289.6 1091.4,1289.6
				1091.4,1234.4 1148.1,1234.4 1148.1,1120.3 1091.4,1120.3 1091.4,1114.1 1163.4,1114.1 1163.4,946.4 1189.8,920 1418.4,920
				1418.4,682.9 			"/>
			<polygon class="st3" points="988,1515.5 988,1363.8 1027.8,1363.8 1027.8,1279.6 984.9,1279.6 984.9,1120.3 1043.9,1120.3
				1043.9,1113.4 745.9,1113.4 745.9,1041.4 609.6,1041.4 609.6,1045.2 639.5,1045.2 688.1,1093.8 688.1,1205.3 587.4,1205.3
				587.4,1215.3 667.8,1215.3 667.8,1263.5 732.9,1263.5 732.9,1304.1 746.7,1304.1 746.7,1248.2 896.1,1248.2 896.1,1408.3
				851.6,1408.3 851.6,1498.7 978,1498.7 978,1515.5 			"/>
			<polygon class="st3" points="538.3,1205.3 538.3,1217.6 474,1217.6 474,1290.3 390.5,1290.3 390.5,1304.9 376,1304.9 376,1232.1
				331.5,1232.1 331.5,1172.4 376.7,1172.4 376.7,891.3 381.3,891.3 381.3,1008.4 520,1008.4 520,1041.4 538.3,1041.4 538.3,1046
				508.5,1046 508.5,1204.5 			"/>
			<polygon class="st3" points="380.6,828.4 376,828.4 376,741.9 331.5,741.9 331.5,725 600.4,725 600.4,609.4 716.1,609.4
				716.1,564.3 730.6,564.3 730.6,699.8 852.4,699.8 852.4,666.8 880,666.8 880,872.9 746.7,872.9 746.7,934.1 660.9,934.1
				660.9,858.3 553.7,858.3 553.7,917.3 524.9,946 493.9,946 468.5,920.6 468.5,798.6 381.3,798.6 			"/>
			<polygon class="st3" points="523.8,557.3 516.9,557.3 516.9,592.5 434.9,592.5 434.9,488.4 331.5,488.4 331.5,635.4 523.8,635.4
							"/>
			<polygon class="st4" points="664.5,1754.1 664.5,1754.7 672.2,1754.7 672.2,1754.1 672.2,1428.4 664.5,1428.4 664.5,1494.3
				456.2,1494.3 456.2,1428.4 451.6,1428.4 451.6,1500.4 638.5,1500.4 664.5,1500.4 664.5,1527.8 			"/>
			<polyline class="st4" points="664.5,1527.8 638.5,1527.8 638.5,1500.4 638.5,1499.4 			"/>
			<polyline class="st4" points="388,1603.6 389,1603.6 417.9,1603.6 417.9,1574.5 389,1574.5 388,1574.5 			"/>
			<polygon class="st4" points="525.1,1619.9 525.1,1646.7 549.6,1646.7 556.5,1640.6 580.2,1639.8 580.2,1614.6 552.7,1614.6
				537.3,1620.7 			"/>
			<polyline class="st4" points="521.5,296.1 521.5,132.2 521.5,100.8 554.2,100.8 554.2,132.2 521.5,132.2 			"/>
			<polygon class="st4" points="608.3,178.7 608.3,206.7 600.1,206.7 600.1,234.8 626.7,234.8 626.7,206.7 635.4,206.7 635.4,178.7
							"/>
			<polyline class="st4" points="672.6,100.8 672.6,132.2 703.8,132.2 703.8,100.8 			"/>
			<rect x="585.8" y="324.7" class="st4" width="86.8" height="30.1"/>
		</g>
	</g>
</g>
<g id="Bombsite">
</g>
<g id="Boxes__x26__Inner_walls">
	<rect x="476.8" y="1755.7" class="st4" width="96.5" height="10.7"/>
	<polyline class="st4" points="519,1249.4 519,1291.6 623.9,1291.6 623.9,1217.3 630,1217.3 630,1264.7 623.9,1264.7 	"/>
	<line class="st4" x1="330.5" y1="1174.4" x2="330.5" y2="1009.7"/>
	<polyline class="st4" points="873.6,1115.4 873.6,1070.2 901.2,1070.2 901.2,1043.4 873.6,1043.4 873.6,1028.8 865.2,1028.8
		865.2,1087 865.2,1115.4 839.1,1115.4 839.1,1087.8 865.2,1087 	"/>
	<path class="st4" d="M873.6,1070.2v-26.8V1070.2z"/>
	<polyline class="st4" points="865.9,874.9 865.9,966 873.6,966 873.6,874.9 	"/>
	<polyline class="st4" points="879,845.8 1029.1,845.8 1029.1,920.4 	"/>
	<polyline class="st4" points="1103.4,920.4 1103.4,845.8 1311.7,845.8 1311.7,922 1342.4,922 1342.4,893.3 1312.7,894 	"/>
	<polyline class="st4" points="1162.4,981.3 1134,981.3 1134,1012.7 1162.4,1012.7 	"/>
	<polyline class="st4" points="879,836.9 913.1,836.9 913.1,809.8 879,809.8 	"/>
	<polyline class="st4" points="1194.5,576.4 1194.5,547.3 1165.9,547.3 1165.9,576.4 	"/>
	<polyline class="st4" points="1446,608.5 1375.3,608.5 1375.3,600.9 1446,600.9 	"/>
	<polyline class="st4" points="1313,784.8 1342.4,784.8 1342.4,756.1 1312.7,756.1 	"/>
	<polyline class="st4" points="1783.8,1285.2 1766.4,1267.8 1748.5,1267.8 1732.4,1283.9 1732.4,1302 1747.9,1317.5 1765.9,1317.5
		1782.1,1301.3 	"/>
	<polyline class="st4" points="1165.9,1603.4 1165.9,1545.6 1103.1,1545.6 1103.1,1603.4 	"/>
	<polygon class="st4" points="608.8,1454.2 608.8,1425.1 531.2,1425.1 516.9,1431.7 509.7,1439.7 514.8,1445 530.7,1454.2 	"/>
	<polyline class="st4" points="493.4,636.4 493.4,666.3 523.8,666.3 523.8,636.4 	"/>
	<polyline class="st4" points="523.8,570.8 555.2,570.8 555.2,523.8 555.2,506 569.5,506 569.5,523.8 555.2,523.8 	"/>
	<line class="st4" x1="524.6" y1="523.8" x2="523.8" y2="558.3"/>
	<line class="st4" x1="716" y1="580.5" x2="629.2" y2="580.5"/>
	<line class="st4" x1="716" y1="503.4" x2="629.2" y2="503.4"/>
	<polyline class="st4" points="479.6,101.8 479.6,133.2 509.2,133.2 509.2,101.8 	"/>
	<polyline class="st4" points="807.9,101.8 807.9,132.3 807.9,162.8 866.9,162.8 866.9,132.3 807.9,132.3 	"/>
	<circle class="st4" cx="1054.6" cy="997" r="11.9"/>
	<circle class="st4" cx="1608.6" cy="1147.8" r="22"/>
	<circle class="st4" cx="218.8" cy="877.3" r="12.3"/>
</g>
<g id="SovaShock" class="ability">
	<g class="attackers side" style="display:none">

	</g>
	<g class="defenders side" style="display:none">

	</g>
</g>
<g id="SovaRecon" class="ability">
	<g class="attackers side" style="display:none">

	</g>
	<g class="defenders side" style="display:none">

	</g>
</g>
</svg>
